<svg width="100" height="100" viewBox="0 0 100 100" fill="none" xmlns="http://www.w3.org/2000/svg">
<rect width="100" height="100" rx="10" fill="#1F2937"/>
<g clip-path="url(#clip0_3_21)">
<path d="M25.25 69.25C34.4157 63.75 39 58.25 39 52.75C39 44.5 36.25 44.5 33.5 44.5C30.75 44.5 27.912 47.4838 28 52.75C28.0935 58.382 32.5595 60.6617 34.875 63.75C39 69.25 41.75 70.625 44.5 66.5C46.3342 63.75 47.7092 61.4592 48.625 59.625C51.375 66.0407 55.0407 69.25 59.625 69.25H66.5" stroke="white" stroke-width="4" stroke-linecap="round" stroke-linejoin="round"/>
<path d="M72 63.75V30.75C72 27.6672 69.5828 25.25 66.5 25.25C63.4172 25.25 61 27.6672 61 30.75V63.75L66.5 69.25L72 63.75Z" stroke="white" stroke-width="4" stroke-linecap="round" stroke-linejoin="round"/>
<path d="M61 36.25H72" stroke="white" stroke-width="4" stroke-linecap="round" stroke-linejoin="round"/>
</g>
<defs>
<clipPath id="clip0_3_21">
<rect width="66" height="66" fill="white" transform="translate(17 17)"/>
</clipPath>
</defs>
</svg>
